<svg width="11" height="11" viewBox="0.006256103515625 0.00634765625 10.98748779296875 10.9873046875" fill="none" xmlns="http://www.w3.org/2000/svg">
<path d="M10.756 0.252371C10.4306 -0.0729995 9.90502 -0.0729995 9.57965 0.252371L5.50001 4.32367L1.42037 0.244028C1.095 -0.0813425 0.569398 -0.0813425 0.244028 0.244028C-0.0813425 0.569398 -0.0813425 1.095 0.244028 1.42037L4.32367 5.50001L0.244028 9.57965C-0.0813425 9.90502 -0.0813425 10.4306 0.244028 10.756C0.569398 11.0814 1.095 11.0814 1.42037 10.756L5.50001 6.67634L9.57965 10.756C9.90502 11.0814 10.4306 11.0814 10.756 10.756C11.0814 10.4306 11.0814 9.90502 10.756 9.57965L6.67634 5.50001L10.756 1.42037C11.073 1.10334 11.073 0.569398 10.756 0.252371Z" fill="#F2F2F2"/>
</svg>
